<svg width="272" height="46" viewBox="0 0 272 46" fill="none" xmlns="http://www.w3.org/2000/svg">
<path d="M75.0586 10.5625H79.707L87.4805 31.9688L95.2344 10.5625H99.9023L89.3359 39H85.6055L75.0586 10.5625ZM72.7148 10.5625H77.2656L78.0859 30.2305V39H72.7148V10.5625ZM97.6758 10.5625H102.246V39H96.875V30.2305L97.6758 10.5625ZM106.406 28.6484V28.2383C106.406 26.6888 106.628 25.263 107.07 23.9609C107.513 22.6458 108.158 21.5065 109.004 20.543C109.85 19.5794 110.885 18.8307 112.109 18.2969C113.333 17.75 114.727 17.4766 116.289 17.4766C117.878 17.4766 119.284 17.75 120.508 18.2969C121.745 18.8307 122.786 19.5794 123.633 20.543C124.479 21.5065 125.124 22.6458 125.566 23.9609C126.009 25.263 126.23 26.6888 126.23 28.2383V28.6484C126.23 30.1849 126.009 31.6107 125.566 32.9258C125.124 34.2279 124.479 35.3672 123.633 36.3438C122.786 37.3073 121.751 38.056 120.527 38.5898C119.303 39.1237 117.904 39.3906 116.328 39.3906C114.766 39.3906 113.366 39.1237 112.129 38.5898C110.892 38.056 109.85 37.3073 109.004 36.3438C108.158 35.3672 107.513 34.2279 107.07 32.9258C106.628 31.6107 106.406 30.1849 106.406 28.6484ZM111.562 28.2383V28.6484C111.562 29.5729 111.654 30.4388 111.836 31.2461C112.018 32.0534 112.298 32.763 112.676 33.375C113.053 33.987 113.542 34.4688 114.141 34.8203C114.753 35.1589 115.482 35.3281 116.328 35.3281C117.161 35.3281 117.878 35.1589 118.477 34.8203C119.076 34.4688 119.564 33.987 119.941 33.375C120.332 32.763 120.618 32.0534 120.801 31.2461C120.983 30.4388 121.074 29.5729 121.074 28.6484V28.2383C121.074 27.3268 120.983 26.474 120.801 25.6797C120.618 24.8724 120.332 24.1628 119.941 23.5508C119.564 22.9258 119.069 22.4375 118.457 22.0859C117.858 21.7214 117.135 21.5391 116.289 21.5391C115.456 21.5391 114.74 21.7214 114.141 22.0859C113.542 22.4375 113.053 22.9258 112.676 23.5508C112.298 24.1628 112.018 24.8724 111.836 25.6797C111.654 26.474 111.562 27.3268 111.562 28.2383ZM142.559 33.9805V17.8672H147.754V39H142.871L142.559 33.9805ZM143.223 29.6055L144.824 29.5664C144.824 30.9857 144.668 32.2943 144.355 33.4922C144.043 34.6901 143.555 35.7318 142.891 36.6172C142.24 37.4896 141.413 38.1732 140.41 38.668C139.408 39.1497 138.223 39.3906 136.855 39.3906C135.814 39.3906 134.863 39.2474 134.004 38.9609C133.145 38.6615 132.402 38.1992 131.777 37.5742C131.165 36.9362 130.69 36.1224 130.352 35.1328C130.013 34.1302 129.844 32.9258 129.844 31.5195V17.8672H135V31.5586C135 32.2617 135.078 32.8477 135.234 33.3164C135.404 33.7852 135.632 34.1693 135.918 34.4688C136.217 34.7552 136.562 34.9635 136.953 35.0938C137.357 35.2109 137.786 35.2695 138.242 35.2695C139.492 35.2695 140.475 35.0221 141.191 34.5273C141.921 34.0195 142.441 33.3424 142.754 32.4961C143.066 31.6367 143.223 30.6732 143.223 29.6055ZM165 34.5078V9H170.195V39H165.508L165 34.5078ZM151.426 28.6875V28.2773C151.426 26.6628 151.608 25.1979 151.973 23.8828C152.35 22.5547 152.897 21.4154 153.613 20.4648C154.329 19.5143 155.195 18.7786 156.211 18.2578C157.24 17.737 158.405 17.4766 159.707 17.4766C160.97 17.4766 162.07 17.7305 163.008 18.2383C163.958 18.7461 164.766 19.4688 165.43 20.4062C166.107 21.3438 166.647 22.457 167.051 23.7461C167.454 25.0221 167.747 26.4284 167.93 27.9648V29.0781C167.747 30.5755 167.454 31.9492 167.051 33.1992C166.647 34.4492 166.107 35.543 165.43 36.4805C164.766 37.4049 163.958 38.1211 163.008 38.6289C162.057 39.1367 160.944 39.3906 159.668 39.3906C158.379 39.3906 157.22 39.1237 156.191 38.5898C155.176 38.056 154.31 37.3073 153.594 36.3438C152.891 35.3802 152.35 34.2474 151.973 32.9453C151.608 31.6432 151.426 30.224 151.426 28.6875ZM156.602 28.2773V28.6875C156.602 29.599 156.68 30.4518 156.836 31.2461C156.992 32.0404 157.246 32.7435 157.598 33.3555C157.949 33.9544 158.398 34.4232 158.945 34.7617C159.505 35.1003 160.182 35.2695 160.977 35.2695C161.992 35.2695 162.826 35.0482 163.477 34.6055C164.141 34.1497 164.655 33.5312 165.02 32.75C165.384 31.9557 165.618 31.0638 165.723 30.0742V27.0078C165.671 26.2266 165.534 25.5039 165.312 24.8398C165.104 24.1758 164.805 23.6029 164.414 23.1211C164.036 22.6393 163.568 22.2617 163.008 21.9883C162.448 21.7148 161.784 21.5781 161.016 21.5781C160.221 21.5781 159.544 21.7539 158.984 22.1055C158.424 22.444 157.969 22.9193 157.617 23.5312C157.266 24.1432 157.005 24.8529 156.836 25.6602C156.68 26.4674 156.602 27.3398 156.602 28.2773ZM180.02 22.1836V39H174.863V17.8672H179.746L180.02 22.1836ZM186.445 17.7305L186.367 22.5352C186.081 22.4831 185.755 22.444 185.391 22.418C185.039 22.3919 184.707 22.3789 184.395 22.3789C183.6 22.3789 182.904 22.4896 182.305 22.7109C181.706 22.9193 181.204 23.2253 180.801 23.6289C180.41 24.0326 180.111 24.5273 179.902 25.1133C179.694 25.6862 179.577 26.3372 179.551 27.0664L178.438 26.9297C178.438 25.5885 178.574 24.3451 178.848 23.1992C179.121 22.0534 179.518 21.0508 180.039 20.1914C180.56 19.332 181.211 18.668 181.992 18.1992C182.786 17.7174 183.698 17.4766 184.727 17.4766C185.013 17.4766 185.319 17.5026 185.645 17.5547C185.983 17.5938 186.25 17.6523 186.445 17.7305ZM200.254 34.5078V24.7617C200.254 24.0456 200.13 23.4271 199.883 22.9062C199.635 22.3854 199.258 21.9818 198.75 21.6953C198.242 21.4089 197.598 21.2656 196.816 21.2656C196.126 21.2656 195.521 21.3828 195 21.6172C194.492 21.8516 194.102 22.1836 193.828 22.6133C193.555 23.0299 193.418 23.5117 193.418 24.0586H188.242C188.242 23.1862 188.451 22.3594 188.867 21.5781C189.284 20.7839 189.876 20.0807 190.645 19.4688C191.426 18.8438 192.357 18.3555 193.438 18.0039C194.531 17.6523 195.755 17.4766 197.109 17.4766C198.711 17.4766 200.137 17.75 201.387 18.2969C202.65 18.8307 203.639 19.638 204.355 20.7188C205.085 21.7995 205.449 23.1602 205.449 24.8008V34.0195C205.449 35.0742 205.514 35.9792 205.645 36.7344C205.788 37.4766 205.996 38.1211 206.27 38.668V39H201.016C200.768 38.4661 200.579 37.7891 200.449 36.9688C200.319 36.1354 200.254 35.3151 200.254 34.5078ZM200.977 26.1289L201.016 29.1953H197.754C196.947 29.1953 196.237 29.2799 195.625 29.4492C195.013 29.6055 194.512 29.8398 194.121 30.1523C193.73 30.4518 193.438 30.8164 193.242 31.2461C193.047 31.6628 192.949 32.138 192.949 32.6719C192.949 33.1927 193.066 33.6615 193.301 34.0781C193.548 34.4948 193.9 34.8268 194.355 35.0742C194.824 35.3086 195.371 35.4258 195.996 35.4258C196.908 35.4258 197.702 35.2435 198.379 34.8789C199.056 34.5013 199.583 34.0456 199.961 33.5117C200.339 32.9779 200.54 32.4701 200.566 31.9883L202.051 34.2148C201.868 34.7487 201.595 35.3151 201.23 35.9141C200.866 36.513 200.397 37.0729 199.824 37.5938C199.251 38.1146 198.561 38.5443 197.754 38.8828C196.947 39.2214 196.009 39.3906 194.941 39.3906C193.574 39.3906 192.35 39.1172 191.27 38.5703C190.189 38.0234 189.336 37.2747 188.711 36.3242C188.086 35.3737 187.773 34.293 187.773 33.082C187.773 31.9622 187.982 30.9727 188.398 30.1133C188.815 29.2539 189.434 28.5312 190.254 27.9453C191.074 27.3464 192.09 26.8971 193.301 26.5977C194.525 26.2852 195.924 26.1289 197.5 26.1289H200.977ZM194.668 14.9375L198.496 9H204.199L198.867 14.9375H194.668ZM235.332 31.6172C235.332 31.0703 235.247 30.582 235.078 30.1523C234.922 29.7096 234.629 29.3125 234.199 28.9609C233.783 28.5964 233.19 28.2448 232.422 27.9062C231.667 27.5547 230.69 27.1901 229.492 26.8125C228.164 26.3958 226.927 25.9271 225.781 25.4062C224.635 24.8854 223.626 24.2799 222.754 23.5898C221.895 22.8997 221.224 22.1055 220.742 21.207C220.26 20.2956 220.02 19.2409 220.02 18.043C220.02 16.8711 220.267 15.8034 220.762 14.8398C221.27 13.8763 221.986 13.0495 222.91 12.3594C223.835 11.6562 224.922 11.1159 226.172 10.7383C227.435 10.3607 228.828 10.1719 230.352 10.1719C232.461 10.1719 234.284 10.556 235.82 11.3242C237.37 12.0924 238.568 13.1341 239.414 14.4492C240.26 15.7643 240.684 17.2422 240.684 18.8828H235.332C235.332 17.9974 235.143 17.2161 234.766 16.5391C234.401 15.862 233.841 15.3281 233.086 14.9375C232.344 14.5469 231.406 14.3516 230.273 14.3516C229.18 14.3516 228.268 14.5143 227.539 14.8398C226.823 15.1654 226.283 15.6081 225.918 16.168C225.566 16.7279 225.391 17.3529 225.391 18.043C225.391 18.5638 225.514 19.0326 225.762 19.4492C226.009 19.8529 226.38 20.237 226.875 20.6016C227.37 20.9531 227.982 21.2852 228.711 21.5977C229.453 21.8971 230.312 22.1966 231.289 22.4961C232.852 22.9648 234.219 23.4857 235.391 24.0586C236.576 24.6315 237.559 25.2826 238.34 26.0117C239.134 26.7409 239.727 27.5612 240.117 28.4727C240.521 29.3841 240.723 30.4193 240.723 31.5781C240.723 32.8021 240.482 33.8958 240 34.8594C239.518 35.8229 238.828 36.6432 237.93 37.3203C237.031 37.9974 235.951 38.5117 234.688 38.8633C233.438 39.2148 232.038 39.3906 230.488 39.3906C229.108 39.3906 227.741 39.2083 226.387 38.8438C225.046 38.4661 223.828 37.9062 222.734 37.1641C221.641 36.4089 220.768 35.4583 220.117 34.3125C219.466 33.1536 219.141 31.7995 219.141 30.25H224.531C224.531 31.1484 224.674 31.9167 224.961 32.5547C225.26 33.1797 225.677 33.694 226.211 34.0977C226.758 34.4883 227.396 34.7747 228.125 34.957C228.854 35.1393 229.642 35.2305 230.488 35.2305C231.582 35.2305 232.48 35.0807 233.184 34.7812C233.9 34.4688 234.434 34.0391 234.785 33.4922C235.15 32.9453 235.332 32.3203 235.332 31.6172ZM250.039 17.8672V39H244.863V17.8672H250.039ZM244.961 15.1719L248.789 9.23438H254.492L249.16 15.1719H244.961ZM265.176 17.8672V21.5781H253.066V17.8672H265.176ZM256.309 12.6719H261.484V32.9062C261.484 33.5312 261.569 34.013 261.738 34.3516C261.908 34.6901 262.161 34.918 262.5 35.0352C262.839 35.1523 263.242 35.2109 263.711 35.2109C264.049 35.2109 264.362 35.1914 264.648 35.1523C264.935 35.1133 265.176 35.0742 265.371 35.0352L265.391 38.9023C264.961 39.0456 264.473 39.1628 263.926 39.2539C263.392 39.3451 262.786 39.3906 262.109 39.3906C260.951 39.3906 259.935 39.1953 259.062 38.8047C258.19 38.401 257.513 37.7565 257.031 36.8711C256.549 35.9727 256.309 34.7878 256.309 33.3164V12.6719ZM268.945 6.5V7.94531C268.945 9.11719 268.685 10.3281 268.164 11.5781C267.643 12.8151 266.966 13.8372 266.133 14.6445L263.535 13.1406C263.991 12.4245 264.349 11.6823 264.609 10.9141C264.87 10.1328 265 9.21484 265 8.16016V6.5H268.945Z" fill="#3E3E3E"/>
<path d="M9.41807 45.0018H0C0 30.6738 5.83292 17.8872 7.88292 15.8372C8.73369 14.9864 9.91094 14.459 11.2138 14.459C12.5166 14.459 13.6907 14.9864 14.5446 15.8372C15.3954 16.6879 15.9228 17.8652 15.9228 19.168C15.9228 25.3525 20.8328 29.4965 25.0458 30.0836C27.1554 30.3755 28.5995 32.1304 28.5995 34.3908C28.5995 36.5695 27.1021 38.8047 24.2829 38.8047C20.1264 38.8047 13.3925 35.1442 11.1322 30.3849C9.9549 34.4064 9.41807 39.5707 9.41807 45.0018Z" fill="#028790"/>
<path d="M37.6717 22.2221C37.9071 21.5377 38.2964 20.9224 38.7987 20.4201C39.6494 19.5693 40.8267 19.0419 42.1295 19.0419C43.4324 19.0419 44.6065 19.5693 45.4604 20.4201C46.3049 21.2646 53.9994 30.736 53.9994 45.0012H44.5814C44.5814 39.3912 43.6145 34.6162 42.186 31.5365C39.0592 36.1043 34.1053 38.3992 28.5801 38.9737C29.6977 37.9879 30.5547 36.3335 30.5547 34.409C30.5547 32.4846 29.7134 31.0154 28.8406 30.0924C33.7349 28.9874 36.3154 26.1777 37.6717 22.2221Z" fill="#E25B5B"/>
<path d="M17.5 12C21.0899 12 24 9.31371 24 6C24 2.68629 21.0899 0 17.5 0C13.9101 0 11 2.68629 11 6C11 9.31371 13.9101 12 17.5 12Z" fill="#028790"/>
<path d="M40 16C43.3137 16 46 13.3137 46 10C46 6.68629 43.3137 4 40 4C36.6863 4 34 6.68629 34 10C34 13.3137 36.6863 16 40 16Z" fill="#E25B5B"/>
</svg>
