<svg width="54" height="39" viewBox="0 0 54 39" fill="none" xmlns="http://www.w3.org/2000/svg">
<path d="M2 11.9747C12.6899 1.30822 34.9331 -3.72227 52 11.9748M7.99372 17.7398C18.7852 7.28253 35.9352 7.8301 46.0063 17.7398M14.3707 23.8298C21.1033 17.3169 32.1949 16.9162 39.6154 23.8298M20.6415 30C23.5183 26.9327 29.1795 26.0379 33.4001 30" stroke="white" stroke-width="2.5" stroke-linecap="round"/>
<path d="M26.8111 38.0345C25.5289 38.0345 24.5 37.0098 24.5 35.7678C24.5 34.5255 25.5291 33.5 26.8111 33.5C28.0935 33.5 29.1232 34.5249 29.1232 35.7678C29.1232 37.0103 28.0928 38.0345 26.8111 38.0345ZM26.8111 34.5085C26.1176 34.5085 25.5407 35.0658 25.5407 35.7678C25.5407 36.4706 26.1185 37.026 26.8111 37.026C27.5048 37.026 28.0825 36.4696 28.0825 35.7678C28.0825 35.0654 27.5052 34.5085 26.8111 34.5085Z" fill="white" stroke="white"/>
</svg>
