<svg width="56" height="41" viewBox="0 0 56 41" fill="none" xmlns="http://www.w3.org/2000/svg">
<path d="M2 12.7173C13.1175 1.25672 36.2505 -4.14826 54 12.7173M8.23347 18.9115C19.4566 7.67579 37.2926 8.26412 47.7665 18.9115M14.8655 25.4549C21.8674 18.4571 33.4027 18.0266 41.1201 25.4549M21.3871 32.0845C24.379 28.7888 30.2667 27.8274 34.6561 32.0845" stroke="black" stroke-width="2.5" stroke-linecap="round"/>
<path d="M29.3521 38.0127C29.3521 38.7521 28.7489 39.36 27.9944 39.36C27.2399 39.36 26.6367 38.7521 26.6367 38.0127C26.6367 37.2733 27.2399 36.6654 27.9944 36.6654C28.7489 36.6654 29.3521 37.2733 29.3521 38.0127Z" stroke="black" stroke-width="2.5"/>
</svg>
