<svg width="52" height="52" viewBox="0 0 52 52" fill="none" xmlns="http://www.w3.org/2000/svg">
<path d="M50.9166 36.8346H47.6666V13.0012C47.6666 10.6113 45.7232 8.66785 43.3333 8.66785H8.66663C6.27677 8.66785 4.33327 10.6112 4.33327 13.0012V36.8346H1.08327C0.484555 36.8346 0 37.319 0 37.9178V39.0012C0 41.3911 1.9434 43.3346 4.33337 43.3346H47.6667C50.0566 43.3346 52 41.3911 52 39.0012V37.9178C52 37.319 51.5154 36.8346 50.9166 36.8346ZM6.5 13.0012C6.5 11.8068 7.47226 10.8346 8.66663 10.8346H43.3333C44.5276 10.8346 45.4999 11.8068 45.4999 13.0012V36.8346H31.4166H20.5834H6.5V13.0012ZM47.6666 41.1678H4.33337C3.13899 41.1678 2.16673 40.1956 2.16673 39.0012H5.41673H20.1348L20.9008 39.7672C21.1039 39.9703 21.3789 40.0846 21.6667 40.0846H30.3334C30.6211 40.0846 30.8962 39.9703 31.0994 39.7672L31.8652 39.0012H46.5834H49.8334C49.8334 40.1956 48.8611 41.1678 47.6666 41.1678Z" fill="black"/>
</svg>
