<svg width="52" height="52" viewBox="0 0 52 52" fill="none" xmlns="http://www.w3.org/2000/svg">
<path d="M30.7656 4.33215H25.5656C24.8472 4.33215 24.2656 4.9137 24.2656 5.63215C24.2656 6.35061 24.8472 6.93215 25.5656 6.93215H30.7656C31.4841 6.93215 32.0656 6.35061 32.0656 5.63215C32.0656 4.9137 31.4841 4.33215 30.7656 4.33215Z" fill="white"/>
<path d="M36.4023 0H15.6023C12.7354 0 10.4023 2.33309 10.4023 5.2V46.8C10.4023 49.6669 12.7354 52 15.6023 52H36.4023C39.2693 52 41.6023 49.6669 41.6023 46.8V5.2C41.6023 2.33309 39.2693 0 36.4023 0ZM39.0023 46.8C39.0023 48.2361 37.8384 49.4 36.4023 49.4H15.6023C14.1663 49.4 13.0023 48.2361 13.0023 46.8V5.2C13.0023 3.76391 14.1663 2.6 15.6023 2.6H36.4023C37.8384 2.6 39.0023 3.76391 39.0023 5.2V46.8Z" fill="white"/>
<path d="M26.0023 47.6664C27.4383 47.6664 28.6023 46.5024 28.6023 45.0664C28.6023 43.6305 27.4383 42.4664 26.0023 42.4664C24.5664 42.4664 23.4023 43.6305 23.4023 45.0664C23.4023 46.5024 24.5664 47.6664 26.0023 47.6664Z" fill="white"/>
<path d="M21.2336 6.93258C21.9516 6.93258 22.5336 6.35055 22.5336 5.63258C22.5336 4.91461 21.9516 4.33258 21.2336 4.33258C20.5156 4.33258 19.9336 4.91461 19.9336 5.63258C19.9336 6.35055 20.5156 6.93258 21.2336 6.93258Z" fill="white"/>
</svg>
