<svg width="47" height="47" viewBox="0 0 47 47" fill="none" xmlns="http://www.w3.org/2000/svg">
<g clip-path="url(#clip0_2723_2396)">
<path d="M27.4843 3.87H22.839C22.1972 3.87 21.6777 4.3895 21.6777 5.0313C21.6777 5.6731 22.1972 6.19261 22.839 6.19261H27.4843C28.1261 6.19261 28.6456 5.6731 28.6456 5.0313C28.6456 4.3895 28.1261 3.87 27.4843 3.87Z" fill="#3E3E3E"/>
<path d="M32.5191 0H13.9382C11.3771 0 9.29297 2.08418 9.29297 4.64522V41.807C9.29297 44.368 11.3771 46.4522 13.9382 46.4522H32.5191C35.0801 46.4522 37.1643 44.368 37.1643 41.807V4.64522C37.1643 2.08418 35.0801 0 32.5191 0ZM34.8417 41.807C34.8417 43.0899 33.802 44.1296 32.5191 44.1296H13.9382C12.6553 44.1296 11.6156 43.0899 11.6156 41.807V4.64522C11.6156 3.36234 12.6553 2.32261 13.9382 2.32261H32.5191C33.802 2.32261 34.8417 3.36234 34.8417 4.64522V41.807Z" fill="#3E3E3E"/>
<path d="M23.2289 42.581C24.5116 42.581 25.5515 41.5411 25.5515 40.2584C25.5515 38.9757 24.5116 37.9358 23.2289 37.9358C21.9461 37.9358 20.9062 38.9757 20.9062 40.2584C20.9062 41.5411 21.9461 42.581 23.2289 42.581Z" fill="#3E3E3E"/>
<path d="M18.9679 6.19297C19.6093 6.19297 20.1293 5.67304 20.1293 5.03167C20.1293 4.3903 19.6093 3.87036 18.9679 3.87036C18.3266 3.87036 17.8066 4.3903 17.8066 5.03167C17.8066 5.67304 18.3266 6.19297 18.9679 6.19297Z" fill="#3E3E3E"/>
</g>
<defs>
<clipPath id="clip0_2723_2396">
<rect width="46.4522" height="46.4522" fill="white"/>
</clipPath>
</defs>
</svg>
