<svg width="52" height="52" viewBox="0 0 52 52" fill="none" xmlns="http://www.w3.org/2000/svg">
<g clip-path="url(#clip0_2723_2417)">
<path d="M49.1183 41.9092H43.7052C43.4096 41.9092 43.1848 41.6767 43.1848 41.4049C43.1848 41.1332 43.4096 40.9006 43.7052 40.9006H49.1183C49.9042 40.9006 50.556 40.2705 50.556 39.4777V21.2542C50.556 20.4621 49.9039 19.8323 49.1183 19.8323H3.07314C2.28821 19.8323 1.63644 20.4624 1.63644 21.2542V39.4777C1.63644 40.2701 2.28786 40.9006 3.07314 40.9006H8.48619C8.78114 40.9006 9.00656 41.1335 9.00656 41.4049C9.00656 41.6763 8.78115 41.9092 8.48619 41.9092H3.07314C1.70021 41.9092 0.595703 40.8102 0.595703 39.4777V21.2542C0.595703 19.9219 1.69998 18.8237 3.07314 18.8237H49.1173C50.4906 18.8237 51.5957 19.9222 51.5957 21.2542V39.4777C51.5957 40.8102 50.4912 41.9092 49.1183 41.9092Z" fill="#3E3E3E" stroke="#3E3E3E"/>
<path d="M12.5857 11.7415V18.8277H11.5449V10.7372C11.5449 10.4664 11.7707 10.2329 12.0653 10.2329H40.1254C40.4207 10.2329 40.6458 10.4661 40.6458 10.7372V18.8277H39.605V11.7415V11.2415H39.105H13.0857H12.5857V11.7415Z" fill="#3E3E3E" stroke="#3E3E3E"/>
<path d="M39.605 49.4727V33.7969H40.6458V50.4769C40.6458 50.7487 40.4211 50.9812 40.1254 50.9812H12.0653C11.7703 50.9812 11.5449 50.7484 11.5449 50.4769V33.7969H12.5857V49.4727V49.9727H13.0857H39.105H39.605V49.4727Z" fill="#3E3E3E" stroke="#3E3E3E"/>
<path d="M43.7062 33.8008H8.48716C8.19221 33.8008 7.9668 33.5679 7.9668 33.2965C7.9668 33.0251 8.19221 32.7922 8.48716 32.7922H43.7062C44.0018 32.7922 44.2266 33.0248 44.2266 33.2965C44.2266 33.5683 44.0018 33.8008 43.7062 33.8008Z" fill="#3E3E3E" stroke="#3E3E3E"/>
<path d="M35.0342 40.0085H17.1512C16.8563 40.0085 16.6309 39.7757 16.6309 39.5043C16.6309 39.2328 16.8563 39 17.1512 39H35.0332C35.3288 39 35.5536 39.2325 35.5536 39.5043C35.5536 39.7763 35.3285 40.0085 35.0342 40.0085Z" fill="#3E3E3E" stroke="#3E3E3E"/>
<path d="M26.2866 44.7722H17.1512C16.8563 44.7722 16.6309 44.5394 16.6309 44.2679C16.6309 43.9965 16.8563 43.7637 17.1512 43.7637H26.2866C26.5815 43.7637 26.807 43.9965 26.807 44.2679C26.807 44.5394 26.5815 44.7722 26.2866 44.7722Z" fill="#3E3E3E" stroke="#3E3E3E"/>
<path d="M41.9127 28.5176C40.6305 28.5176 39.6016 27.4928 39.6016 26.2508C39.6016 25.0086 40.6307 23.983 41.9127 23.983C43.195 23.983 44.2248 25.0079 44.2248 26.2508C44.2248 27.4933 43.1944 28.5176 41.9127 28.5176ZM41.9127 24.9916C41.2191 24.9916 40.6423 25.5488 40.6423 26.2508C40.6423 26.9536 41.22 27.509 41.9127 27.509C42.6063 27.509 43.1841 26.9526 43.1841 26.2508C43.1841 25.5484 42.6068 24.9916 41.9127 24.9916Z" fill="#3E3E3E" stroke="#3E3E3E"/>
</g>
<defs>
<clipPath id="clip0_2723_2417">
<rect width="52" height="52" fill="white"/>
</clipPath>
</defs>
</svg>
