<svg width="52" height="52" viewBox="0 0 52 52" fill="none" xmlns="http://www.w3.org/2000/svg">
<path d="M46.9482 36.9137H42.0222C41.5087 36.9137 41.0936 36.4986 41.0936 35.9851C41.0936 35.4716 41.5087 35.0565 42.0222 35.0565H46.9482C47.419 35.0565 47.8016 34.674 47.8016 34.2032V17.3533C47.8016 16.8835 47.419 16.5009 46.9482 16.5009H5.04551C4.57565 16.5009 4.19308 16.8835 4.19308 17.3533V34.2032C4.19308 34.674 4.57565 35.0565 5.04551 35.0565H9.97158C10.4842 35.0565 10.9002 35.4716 10.9002 35.9851C10.9002 36.4986 10.4842 36.9137 9.97158 36.9137H5.04551C3.55144 36.9137 2.33594 35.6972 2.33594 34.2032V17.3533C2.33594 15.8592 3.55144 14.6437 5.04551 14.6437H46.9473C48.4414 14.6437 49.6578 15.8592 49.6578 17.3533V34.2032C49.6578 35.6972 48.4423 36.9137 46.9482 36.9137Z" fill="black"/>
<path d="M39.6956 15.5721H37.8384V8.55764H14.1599V15.5721H12.3027V7.62907C12.3027 7.1165 12.7187 6.7005 13.2313 6.7005H38.767C39.2805 6.7005 39.6956 7.1165 39.6956 7.62907V15.5721Z" fill="black"/>
<path d="M38.767 45.302H13.2313C12.7187 45.302 12.3027 44.8869 12.3027 44.3734V28.4883H14.1599V43.4448H37.8384V28.4883H39.6956V44.3734C39.6956 44.8869 39.2805 45.302 38.767 45.302Z" fill="black"/>
<path d="M42.0221 29.4166H9.97154C9.45897 29.4166 9.04297 29.0015 9.04297 28.488C9.04297 27.9745 9.45897 27.5594 9.97154 27.5594H42.0221C42.5356 27.5594 42.9507 27.9745 42.9507 28.488C42.9507 29.0015 42.5356 29.4166 42.0221 29.4166Z" fill="black"/>
<path d="M7.41685 15.9227C6.90428 15.9227 6.48828 15.5067 6.48828 14.9941V11.4516C6.48828 10.9391 6.90428 10.5231 7.41685 10.5231H9.74757C10.2601 10.5231 10.6761 10.9391 10.6761 11.4516C10.6761 11.9642 10.2601 12.3802 9.74757 12.3802H8.34542V14.9941C8.34542 15.5067 7.92942 15.9227 7.41685 15.9227Z" fill="black"/>
<path d="M44.5748 15.9227C44.0613 15.9227 43.6462 15.5067 43.6462 14.9941V12.3802H42.245C41.7315 12.3802 41.3164 11.9642 41.3164 11.4516C41.3164 10.9391 41.7315 10.5231 42.245 10.5231H44.5748C45.0883 10.5231 45.5033 10.9391 45.5033 11.4516V14.9941C45.5033 15.5067 45.0883 15.9227 44.5748 15.9227Z" fill="black"/>
<path d="M34.1324 35.1563H17.8583C17.3457 35.1563 16.9297 34.7413 16.9297 34.2278C16.9297 33.7143 17.3457 33.2992 17.8583 33.2992H34.1315C34.645 33.2992 35.06 33.7143 35.06 34.2278C35.06 34.7413 34.645 35.1563 34.1324 35.1563Z" fill="black"/>
<path d="M26.1718 39.5609H17.8583C17.3457 39.5609 16.9297 39.1459 16.9297 38.6324C16.9297 38.1189 17.3457 37.7038 17.8583 37.7038H26.1718C26.6843 37.7038 27.1003 38.1189 27.1003 38.6324C27.1003 39.1459 26.6843 39.5609 26.1718 39.5609Z" fill="black"/>
<path d="M40.3922 24.5316C38.9808 24.5316 37.834 23.3839 37.834 21.9734C37.834 20.5629 38.9808 19.4142 40.3922 19.4142C41.8036 19.4142 42.9513 20.562 42.9513 21.9734C42.9513 23.3848 41.8027 24.5316 40.3922 24.5316ZM40.3922 21.2714C40.0059 21.2714 39.6911 21.5862 39.6911 21.9734C39.6911 22.3606 40.0059 22.6745 40.3922 22.6745C40.7794 22.6745 41.0942 22.3597 41.0942 21.9734C41.0942 21.5862 40.7794 21.2714 40.3922 21.2714Z" fill="black"/>
</svg>
