<svg width="53" height="53" viewBox="0 0 53 53" fill="none" xmlns="http://www.w3.org/2000/svg">
<path d="M47.7822 37.7768H42.8561C42.3426 37.7768 41.9276 37.3618 41.9276 36.8483C41.9276 36.3348 42.3426 35.9197 42.8561 35.9197H47.7822C48.253 35.9197 48.6356 35.5371 48.6356 35.0663V18.2165C48.6356 17.7466 48.253 17.364 47.7822 17.364H5.87949C5.40964 17.364 5.02706 17.7466 5.02706 18.2165V35.0663C5.02706 35.5371 5.40964 35.9197 5.87949 35.9197H10.8056C11.3181 35.9197 11.7341 36.3348 11.7341 36.8483C11.7341 37.3618 11.3181 37.7768 10.8056 37.7768H5.87949C4.38542 37.7768 3.16992 36.5604 3.16992 35.0663V18.2165C3.16992 16.7224 4.38542 15.5069 5.87949 15.5069H47.7813C49.2754 15.5069 50.4918 16.7224 50.4918 18.2165V35.0663C50.4918 36.5604 49.2763 37.7768 47.7822 37.7768Z" fill="white"/>
<path d="M40.5296 16.4352H38.6724V9.4208H14.9939V16.4352H13.1367V8.49223C13.1367 7.97966 13.5527 7.56366 14.0653 7.56366H39.601C40.1145 7.56366 40.5296 7.97966 40.5296 8.49223V16.4352Z" fill="white"/>
<path d="M39.601 46.1651H14.0653C13.5527 46.1651 13.1367 45.7501 13.1367 45.2366V29.3515H14.9939V44.308H38.6724V29.3515H40.5296V45.2366C40.5296 45.7501 40.1145 46.1651 39.601 46.1651Z" fill="white"/>
<path d="M42.8561 30.2798H10.8055C10.293 30.2798 9.87695 29.8647 9.87695 29.3512C9.87695 28.8377 10.293 28.4226 10.8055 28.4226H42.8561C43.3696 28.4226 43.7847 28.8377 43.7847 29.3512C43.7847 29.8647 43.3696 30.2798 42.8561 30.2798Z" fill="white"/>
<path d="M8.25084 16.7859C7.73827 16.7859 7.32227 16.3699 7.32227 15.8573V12.3148C7.32227 11.8022 7.73827 11.3862 8.25084 11.3862H10.5816C11.0941 11.3862 11.5101 11.8022 11.5101 12.3148C11.5101 12.8274 11.0941 13.2434 10.5816 13.2434H9.17941V15.8573C9.17941 16.3699 8.76341 16.7859 8.25084 16.7859Z" fill="white"/>
<path d="M45.4087 16.7859C44.8952 16.7859 44.4802 16.3699 44.4802 15.8573V13.2434H43.079C42.5655 13.2434 42.1504 12.8274 42.1504 12.3148C42.1504 11.8022 42.5655 11.3862 43.079 11.3862H45.4087C45.9222 11.3862 46.3373 11.8022 46.3373 12.3148V15.8573C46.3373 16.3699 45.9222 16.7859 45.4087 16.7859Z" fill="white"/>
<path d="M34.9664 36.0195H18.6922C18.1797 36.0195 17.7637 35.6044 17.7637 35.0909C17.7637 34.5774 18.1797 34.1624 18.6922 34.1624H34.9655C35.479 34.1624 35.894 34.5774 35.894 35.0909C35.894 35.6044 35.479 36.0195 34.9664 36.0195Z" fill="white"/>
<path d="M27.0057 40.4241H18.6922C18.1797 40.4241 17.7637 40.009 17.7637 39.4955C17.7637 38.982 18.1797 38.567 18.6922 38.567H27.0057C27.5183 38.567 27.9343 38.982 27.9343 39.4955C27.9343 40.009 27.5183 40.4241 27.0057 40.4241Z" fill="white"/>
<path d="M41.2262 25.3948C39.8148 25.3948 38.668 24.247 38.668 22.8365C38.668 21.426 39.8148 20.2774 41.2262 20.2774C42.6376 20.2774 43.7853 21.4251 43.7853 22.8365C43.7853 24.248 42.6367 25.3948 41.2262 25.3948ZM41.2262 22.1345C40.8399 22.1345 40.5251 22.4493 40.5251 22.8365C40.5251 23.2238 40.8399 23.5376 41.2262 23.5376C41.6134 23.5376 41.9282 23.2228 41.9282 22.8365C41.9282 22.4493 41.6134 22.1345 41.2262 22.1345Z" fill="white"/>
</svg>
