<svg width="52" height="52" viewBox="0 0 52 52" fill="none" xmlns="http://www.w3.org/2000/svg">
<path d="M44.394 35.1945H40.0547C39.6023 35.1945 39.2367 34.8346 39.2367 34.3894C39.2367 33.9442 39.6023 33.5844 40.0547 33.5844H44.394C44.8087 33.5844 45.1457 33.2527 45.1457 32.8445V18.2359C45.1457 17.8285 44.8087 17.4968 44.394 17.4968H7.48252C7.06863 17.4968 6.73163 17.8285 6.73163 18.2359V32.8445C6.73163 33.2527 7.06863 33.5844 7.48252 33.5844H11.8218C12.2733 33.5844 12.6398 33.9442 12.6398 34.3894C12.6398 34.8346 12.2733 35.1945 11.8218 35.1945H7.48252C6.16642 35.1945 5.0957 34.1399 5.0957 32.8445V18.2359C5.0957 16.9405 6.16642 15.8867 7.48252 15.8867H44.3931C45.7093 15.8867 46.7808 16.9405 46.7808 18.2359V32.8445C46.7808 34.1399 45.7101 35.1945 44.394 35.1945Z" fill="white"/>
<path d="M38.003 16.6915H36.3671V10.6101H15.509V16.6915H13.873V9.80506C13.873 9.36067 14.2395 9 14.691 9H37.185C37.6374 9 38.003 9.36067 38.003 9.80506V16.6915Z" fill="white"/>
<path d="M37.185 42.467H14.691C14.2395 42.467 13.873 42.1071 13.873 41.6619V27.8898H15.509V40.8569H36.3671V27.8898H38.003V41.6619C38.003 42.1071 37.6374 42.467 37.185 42.467Z" fill="white"/>
<path d="M40.0547 28.6945H11.8219C11.3704 28.6945 11.0039 28.3347 11.0039 27.8895C11.0039 27.4443 11.3704 27.0844 11.8219 27.0844H40.0547C40.507 27.0844 40.8727 27.4443 40.8727 27.8895C40.8727 28.3347 40.507 28.6945 40.0547 28.6945Z" fill="white"/>
<path d="M33.1048 33.6709H18.7691C18.3176 33.6709 17.9512 33.311 17.9512 32.8658C17.9512 32.4206 18.3176 32.0607 18.7691 32.0607H33.104C33.5563 32.0607 33.9219 32.4206 33.9219 32.8658C33.9219 33.311 33.5563 33.6709 33.1048 33.6709Z" fill="white"/>
<path d="M26.0924 37.4896H18.7691C18.3176 37.4896 17.9512 37.1297 17.9512 36.6845C17.9512 36.2393 18.3176 35.8795 18.7691 35.8795H26.0924C26.5439 35.8795 26.9103 36.2393 26.9103 36.6845C26.9103 37.1297 26.5439 37.4896 26.0924 37.4896Z" fill="white"/>
<path d="M38.6187 24.4593C37.3754 24.4593 36.3652 23.4643 36.3652 22.2414C36.3652 21.0185 37.3754 20.0226 38.6187 20.0226C39.862 20.0226 40.873 21.0177 40.873 22.2414C40.873 23.4651 39.8612 24.4593 38.6187 24.4593ZM38.6187 21.6328C38.2784 21.6328 38.0012 21.9057 38.0012 22.2414C38.0012 22.5771 38.2784 22.8492 38.6187 22.8492C38.9598 22.8492 39.2371 22.5763 39.2371 22.2414C39.2371 21.9057 38.9598 21.6328 38.6187 21.6328Z" fill="white"/>
</svg>
