<svg width="53" height="52" viewBox="0 0 53 52" fill="none" xmlns="http://www.w3.org/2000/svg">
<path d="M45.2983 35.1945H40.959C40.5066 35.1945 40.141 34.8346 40.141 34.3894C40.141 33.9442 40.5066 33.5844 40.959 33.5844H45.2983C45.713 33.5844 46.05 33.2527 46.05 32.8445V18.2359C46.05 17.8285 45.713 17.4968 45.2983 17.4968H8.38682C7.97293 17.4968 7.63593 17.8285 7.63593 18.2359V32.8445C7.63593 33.2527 7.97293 33.5844 8.38682 33.5844H12.7261C13.1776 33.5844 13.5441 33.9442 13.5441 34.3894C13.5441 34.8346 13.1776 35.1945 12.7261 35.1945H8.38682C7.07071 35.1945 6 34.1399 6 32.8445V18.2359C6 16.9405 7.07071 15.8867 8.38682 15.8867H45.2974C46.6135 15.8867 47.6851 16.9405 47.6851 18.2359V32.8445C47.6851 34.1399 46.6144 35.1945 45.2983 35.1945Z" fill="black"/>
<path d="M38.9073 16.6915H37.2714V10.6101H16.4133V16.6915H14.7773V9.80506C14.7773 9.36067 15.1438 9 15.5953 9H38.0893C38.5417 9 38.9073 9.36067 38.9073 9.80506V16.6915Z" fill="black"/>
<path d="M38.0893 42.467H15.5953C15.1438 42.467 14.7773 42.1071 14.7773 41.6619V27.8898H16.4133V40.8569H37.2714V27.8898H38.9073V41.6619C38.9073 42.1071 38.5417 42.467 38.0893 42.467Z" fill="black"/>
<path d="M40.959 28.6945H12.7262C12.2747 28.6945 11.9082 28.3347 11.9082 27.8895C11.9082 27.4443 12.2747 27.0844 12.7262 27.0844H40.959C41.4113 27.0844 41.777 27.4443 41.777 27.8895C41.777 28.3347 41.4113 28.6945 40.959 28.6945Z" fill="black"/>
<path d="M34.0091 33.6709H19.6734C19.2219 33.6709 18.8555 33.311 18.8555 32.8658C18.8555 32.4206 19.2219 32.0607 19.6734 32.0607H34.0083C34.4606 32.0607 34.8262 32.4206 34.8262 32.8658C34.8262 33.311 34.4606 33.6709 34.0091 33.6709Z" fill="black"/>
<path d="M26.9967 37.4896H19.6734C19.2219 37.4896 18.8555 37.1297 18.8555 36.6845C18.8555 36.2393 19.2219 35.8795 19.6734 35.8795H26.9967C27.4482 35.8795 27.8146 36.2393 27.8146 36.6845C27.8146 37.1297 27.4482 37.4896 26.9967 37.4896Z" fill="black"/>
<path d="M39.523 24.4593C38.2797 24.4593 37.2695 23.4643 37.2695 22.2414C37.2695 21.0185 38.2797 20.0226 39.523 20.0226C40.7663 20.0226 41.7773 21.0177 41.7773 22.2414C41.7773 23.4651 40.7655 24.4593 39.523 24.4593ZM39.523 21.6328C39.1827 21.6328 38.9055 21.9057 38.9055 22.2414C38.9055 22.5771 39.1827 22.8492 39.523 22.8492C39.8641 22.8492 40.1414 22.5763 40.1414 22.2414C40.1414 21.9057 39.8641 21.6328 39.523 21.6328Z" fill="black"/>
</svg>
