<svg width="103" height="102" viewBox="0 0 103 102" fill="none" xmlns="http://www.w3.org/2000/svg">
<ellipse cx="51.5" cy="51" rx="51.5" ry="51" fill="#028790"/>
<g clip-path="url(#clip0_253_63)">
<path d="M77.8047 44.1324C77.6523 44.2834 77.4716 44.4029 77.273 44.4841C77.0743 44.5653 76.8616 44.6066 76.647 44.6056C76.4325 44.6046 76.2202 44.5614 76.0223 44.4783C75.8244 44.3953 75.6448 44.2741 75.4938 44.1216C69.3092 37.879 61.0169 34.4407 52.1444 34.4407C43.2718 34.4407 34.9795 37.879 28.7949 44.1216C28.4899 44.4295 28.0751 44.6036 27.6417 44.6057C27.2084 44.6077 26.7919 44.4375 26.4841 44.1325C26.1762 43.8275 26.0021 43.4127 26 42.9793C25.998 42.546 26.1682 42.1295 26.4732 41.8217C29.882 38.3712 33.9594 35.6531 38.4556 33.8338C47.2365 30.2857 57.0522 30.2857 65.8332 33.8338C70.3293 35.6531 74.4067 38.3712 77.8155 41.8217C78.1205 42.1295 78.2907 42.5459 78.2887 42.9792C78.2866 43.4126 78.1126 43.8274 77.8047 44.1324ZM69.637 49.9751C69.9415 50.2834 70.3561 50.4581 70.7894 50.4608C71.2228 50.4635 71.6395 50.2939 71.9478 49.9893C72.2561 49.6848 72.4308 49.2702 72.4335 48.8368C72.4361 48.4035 72.2665 47.9868 71.962 47.6785C69.3328 45.0093 66.1854 42.9061 62.7133 41.4983C55.9346 38.7537 48.3541 38.7537 41.5754 41.4983C38.1033 42.9061 34.9559 45.0093 32.3267 47.6785C32.176 47.8312 32.0567 48.012 31.9758 48.2108C31.8949 48.4095 31.8539 48.6223 31.8553 48.8368C31.8566 49.0514 31.9002 49.2636 31.9835 49.4614C32.0668 49.6591 32.1883 49.8385 32.3409 49.9893C32.6493 50.2939 33.0659 50.4635 33.4993 50.4608C33.7139 50.4595 33.9261 50.4159 34.1238 50.3326C34.3216 50.2492 34.501 50.1278 34.6518 49.9751C39.2807 45.2887 45.493 42.7078 52.1444 42.7078C58.7957 42.7078 65.008 45.2887 69.637 49.9751ZM52.1444 56.9693C50.7608 56.9645 49.3907 57.2413 48.1175 57.7828C46.8443 58.3243 45.6947 59.1192 44.7385 60.1192C44.4411 60.4319 44.2794 60.8496 44.2889 61.2811C44.2983 61.7125 44.4781 62.1227 44.7889 62.4221C45.0997 62.7215 45.5163 62.8858 45.9478 62.8791C46.3793 62.8724 46.7907 62.6953 47.0921 62.3864C47.7464 61.7068 48.531 61.1662 49.3992 60.7969C50.2673 60.4276 51.201 60.2373 52.1444 60.2373C53.0878 60.2373 54.0214 60.4276 54.8896 60.7969C55.7577 61.1662 56.5424 61.7068 57.1967 62.3864C57.498 62.6953 57.9094 62.8724 58.3409 62.8791C58.7724 62.8858 59.189 62.7215 59.4998 62.4221C59.8106 62.1227 59.9904 61.7125 59.9998 61.2811C60.0093 60.8496 59.8477 60.4319 59.5503 60.1192C58.5941 59.1192 57.4444 58.3243 56.1712 57.7828C54.898 57.2413 53.5279 56.9645 52.1444 56.9693ZM65.72 53.9278C62.1312 50.2717 57.3099 48.2581 52.1444 48.2581C46.9788 48.2581 42.1575 50.2716 38.5687 53.9278C38.2651 54.2371 38.0969 54.6543 38.1009 55.0876C38.1049 55.521 38.2809 55.935 38.5902 56.2386C38.8995 56.5421 39.3167 56.7104 39.75 56.7064C40.1834 56.7024 40.5974 56.5264 40.901 56.2171C42.372 54.7308 44.1231 53.551 46.053 52.7458C47.9829 51.9406 50.0532 51.526 52.1444 51.526C54.2355 51.526 56.3059 51.9406 58.2358 52.7458C60.1656 53.551 61.9167 54.7308 63.3878 56.2171C63.6913 56.5264 64.1053 56.7024 64.5387 56.7064C64.972 56.7104 65.3892 56.5421 65.6985 56.2386C66.0078 55.935 66.1838 55.521 66.1878 55.0876C66.1919 54.6543 66.0236 54.2371 65.72 53.9278ZM52.1444 65.3879C51.711 65.3879 51.2954 65.5601 50.9889 65.8665C50.6825 66.1729 50.5103 66.5886 50.5103 67.0219V67.4815C50.5103 67.9149 50.6825 68.3305 50.9889 68.6369C51.2954 68.9434 51.711 69.1155 52.1444 69.1155C52.5777 69.1155 52.9934 68.9434 53.2998 68.6369C53.6062 68.3305 53.7784 67.9149 53.7784 67.4815V67.0219C53.7784 66.5886 53.6062 66.1729 53.2998 65.8665C52.9934 65.5601 52.5777 65.3879 52.1444 65.3879ZM73.55 58.808C73.2436 58.5016 72.828 58.3294 72.3946 58.3294C71.9613 58.3294 71.5457 58.5016 71.2392 58.808L69.5058 60.5408L67.7726 58.8076C67.4662 58.5011 67.0505 58.329 66.6171 58.329C66.1837 58.329 65.768 58.5012 65.4615 58.8077C65.1551 59.1142 64.9829 59.5299 64.9829 59.9633C64.983 60.3967 65.1551 60.8124 65.4616 61.1188L67.1948 62.852L65.4616 64.585C65.3084 64.7364 65.1866 64.9166 65.1032 65.1152C65.0199 65.3139 64.9767 65.527 64.976 65.7425C64.9754 65.9579 65.0173 66.1713 65.0994 66.3704C65.1816 66.5696 65.3023 66.7505 65.4546 66.9028C65.6069 67.0552 65.7879 67.1759 65.987 67.258C66.1861 67.3401 66.3996 67.3821 66.615 67.3814C66.8304 67.3808 67.0436 67.3375 67.2422 67.2542C67.4408 67.1708 67.6211 67.0491 67.7724 66.8958L69.5058 65.1627L71.239 66.8959C71.3908 67.0477 71.5709 67.168 71.7692 67.2501C71.9674 67.3323 72.1799 67.3745 72.3945 67.3745C72.6091 67.3746 72.8216 67.3323 73.0198 67.2502C73.2181 67.1681 73.3982 67.0477 73.55 66.896C73.7017 66.7442 73.8221 66.5641 73.9042 66.3658C73.9864 66.1676 74.0286 65.9551 74.0286 65.7405C74.0286 65.5259 73.9864 65.3134 73.9043 65.1151C73.8221 64.9169 73.7018 64.7367 73.55 64.585L71.817 62.8519L73.55 61.1188C73.8565 60.8124 74.0286 60.3968 74.0286 59.9634C74.0286 59.5301 73.8565 59.1145 73.55 58.808Z" fill="white"/>
</g>
<defs>
<clipPath id="clip0_253_63">
<rect width="52.2887" height="52.2887" fill="white" transform="translate(26 24)"/>
</clipPath>
</defs>
</svg>
