<svg width="52" height="52" viewBox="0 0 52 52" fill="none" xmlns="http://www.w3.org/2000/svg">
<g clip-path="url(#clip0_400_215)">
<path d="M51.5187 20.0212C51.3671 20.1714 51.1874 20.2903 50.9899 20.371C50.7923 20.4518 50.5808 20.4928 50.3674 20.4919C50.154 20.4909 49.9429 20.4478 49.7461 20.3653C49.5493 20.2827 49.3708 20.1621 49.2206 20.0105C43.0701 13.8023 34.8236 10.383 26 10.383C17.1765 10.383 8.92991 13.8023 2.77948 20.0105C2.47617 20.3167 2.06365 20.4899 1.63267 20.4919C1.20169 20.4939 0.787561 20.3247 0.481379 20.0214C0.175197 19.718 0.0020465 19.3055 1.80243e-05 18.8745C-0.00201045 18.4436 0.16725 18.0294 0.470563 17.7232C3.86054 14.2919 7.91543 11.5888 12.3868 9.77953C21.1193 6.25098 30.8807 6.25098 39.6133 9.77953C44.0846 11.5888 48.1395 14.2919 51.5295 17.7232C51.8328 18.0294 52.002 18.4435 52 18.8745C51.998 19.3054 51.8248 19.7179 51.5187 20.0212ZM43.3961 25.8317C43.6989 26.1383 44.1112 26.312 44.5422 26.3147C44.9731 26.3173 45.3875 26.1487 45.6941 25.8458C46.0007 25.5429 46.1745 25.1307 46.1771 24.6997C46.1798 24.2687 46.0111 23.8544 45.7082 23.5478C43.0936 20.8932 39.9636 18.8017 36.5106 17.4017C29.7694 14.6722 22.2307 14.6722 15.4894 17.4017C12.0365 18.8017 8.90645 20.8932 6.29182 23.5478C6.14186 23.6996 6.02326 23.8794 5.94281 24.0771C5.86236 24.2747 5.82163 24.4863 5.82294 24.6997C5.82425 24.9131 5.86758 25.1241 5.95045 25.3208C6.03332 25.5174 6.15412 25.6958 6.30594 25.8458C6.61255 26.1487 7.02692 26.3173 7.45789 26.3147C7.67128 26.3134 7.88233 26.2701 8.07898 26.1872C8.27563 26.1043 8.45403 25.9835 8.60399 25.8317C13.2074 21.1712 19.3854 18.6045 26 18.6045C32.6147 18.6045 38.7926 21.1712 43.3961 25.8317ZM26 32.7873C24.6241 32.7825 23.2616 33.0577 21.9954 33.5963C20.7293 34.1348 19.5859 34.9253 18.635 35.9198C18.3392 36.2308 18.1785 36.6462 18.1879 37.0752C18.1973 37.5043 18.3761 37.9122 18.6852 38.21C18.9943 38.5077 19.4086 38.6711 19.8377 38.6645C20.2668 38.6578 20.6759 38.4817 20.9756 38.1745C21.6263 37.4986 22.4067 36.961 23.27 36.5937C24.1333 36.2265 25.0618 36.0372 26 36.0372C26.9382 36.0372 27.8667 36.2265 28.7301 36.5937C29.5934 36.961 30.3737 37.4986 31.0244 38.1745C31.3241 38.4817 31.7332 38.6578 32.1623 38.6645C32.5915 38.6711 33.0058 38.5077 33.3149 38.21C33.624 37.9122 33.8027 37.5043 33.8121 37.0752C33.8215 36.6462 33.6608 36.2308 33.365 35.9198C32.4141 34.9253 31.2708 34.1348 30.0046 33.5963C28.7384 33.0577 27.3759 32.7825 26 32.7873ZM39.5007 29.7626C35.9317 26.1266 31.1371 24.1241 26 24.1241C20.863 24.1241 16.0683 26.1265 12.4993 29.7626C12.1974 30.0701 12.0301 30.485 12.0341 30.916C12.0381 31.347 12.2131 31.7587 12.5207 32.0606C12.8283 32.3625 13.2432 32.5298 13.6741 32.5258C14.1051 32.5218 14.5168 32.3468 14.8187 32.0392C16.2816 30.5612 18.023 29.3878 19.9423 28.5871C21.8615 27.7863 23.9204 27.374 26 27.374C28.0796 27.374 30.1386 27.7863 32.0578 28.5871C33.977 29.3878 35.7184 30.5612 37.1813 32.0392C37.4832 32.3468 37.895 32.5218 38.3259 32.5258C38.7569 32.5298 39.1718 32.3625 39.4793 32.0606C39.7869 31.7587 39.962 31.347 39.966 30.916C39.97 30.485 39.8026 30.0701 39.5007 29.7626ZM26 41.1594C25.569 41.1594 25.1557 41.3306 24.851 41.6354C24.5462 41.9401 24.375 42.3534 24.375 42.7844V43.2414C24.375 43.6724 24.5462 44.0857 24.851 44.3905C25.1557 44.6952 25.569 44.8664 26 44.8664C26.431 44.8664 26.8443 44.6952 27.1491 44.3905C27.4538 44.0857 27.625 43.6724 27.625 43.2414V42.7844C27.625 42.3534 27.4538 41.9401 27.1491 41.6354C26.8443 41.3306 26.431 41.1594 26 41.1594ZM47.2875 34.6158C46.9828 34.3111 46.5695 34.1399 46.1385 34.1399C45.7075 34.1399 45.2942 34.3111 44.9895 34.6158L43.2656 36.339L41.542 34.6154C41.2372 34.3107 40.8239 34.1395 40.3928 34.1395C39.9618 34.1395 39.5484 34.3107 39.2437 34.6155C38.9389 34.9203 38.7677 35.3337 38.7677 35.7647C38.7677 36.1958 38.939 36.6091 39.2438 36.9139L40.9674 38.6375L39.2438 40.3609C39.0914 40.5115 38.9702 40.6907 38.8874 40.8882C38.8045 41.0858 38.7615 41.2978 38.7608 41.512C38.7602 41.7262 38.8019 41.9385 38.8836 42.1365C38.9653 42.3345 39.0853 42.5145 39.2368 42.666C39.3883 42.8174 39.5682 42.9375 39.7662 43.0192C39.9643 43.1008 40.1765 43.1426 40.3908 43.1419C40.605 43.1413 40.817 43.0983 41.0145 43.0154C41.2121 42.9325 41.3913 42.8114 41.5418 42.659L43.2656 40.9355L44.9893 42.6591C45.1402 42.81 45.3193 42.9297 45.5165 43.0114C45.7136 43.093 45.9249 43.1351 46.1384 43.1351C46.3518 43.1351 46.5631 43.093 46.7603 43.0114C46.9574 42.9297 47.1366 42.81 47.2875 42.6591C47.4384 42.5082 47.5581 42.3291 47.6398 42.1319C47.7214 41.9348 47.7635 41.7234 47.7635 41.51C47.7635 41.2966 47.7214 41.0853 47.6398 40.8881C47.5581 40.691 47.4384 40.5118 47.2875 40.3609L45.564 38.6374L47.2875 36.9139C47.5923 36.6091 47.7635 36.1958 47.7635 35.7649C47.7635 35.3339 47.5923 34.9206 47.2875 34.6158Z" fill="white"/>
</g>
<defs>
<clipPath id="clip0_400_215">
<rect width="52" height="52" fill="white"/>
</clipPath>
</defs>
</svg>
