<svg width="102" height="103" viewBox="0 0 102 103" fill="none" xmlns="http://www.w3.org/2000/svg">
<ellipse cx="51" cy="51.5" rx="51" ry="51.5" fill="#028790"/>
<g clip-path="url(#clip0_253_61)">
<path d="M82.721 63.9997H78.5429V33.36C78.5429 30.2877 76.0445 27.7891 72.972 27.7891H28.4053C25.3329 27.7891 22.8344 30.2875 22.8344 33.36V63.9997H18.6563C17.8866 63.9997 17.2637 64.6225 17.2637 65.3923V66.7851C17.2637 69.8574 19.7621 72.3559 22.8346 72.3559H78.543C81.6154 72.3559 84.1138 69.8574 84.1138 66.7851V65.3923C84.1138 64.6225 83.4908 63.9997 82.721 63.9997ZM25.6199 33.36C25.6199 31.8246 26.8698 30.5746 28.4053 30.5746H72.972C74.5074 30.5746 75.7574 31.8246 75.7574 33.36V63.9997H57.6522H43.7252H25.6199V33.36ZM78.5429 69.5704H22.8346C21.2991 69.5704 20.0492 68.3205 20.0492 66.7851H24.2273H43.1485L44.1332 67.7698C44.3944 68.0309 44.7479 68.1778 45.118 68.1778H56.2596C56.6295 68.1778 56.9832 68.0309 57.2443 67.7698L58.2289 66.7851H77.1502H81.3284C81.3284 68.3205 80.0785 69.5704 78.5429 69.5704Z" fill="white"/>
</g>
<defs>
<clipPath id="clip0_253_61">
<rect width="66.8501" height="66.8501" fill="white" transform="translate(17.2637 16.6459)"/>
</clipPath>
</defs>
</svg>
