<svg width="103" height="103" viewBox="0 0 103 103" fill="none" xmlns="http://www.w3.org/2000/svg">
<circle cx="51.5" cy="51.5" r="51.5" fill="#028790"/>
<g clip-path="url(#clip0_253_62)">
<path d="M56.828 27.4891H51.3343C50.5753 27.4891 49.9609 28.1034 49.9609 28.8625C49.9609 29.6215 50.5753 30.2359 51.3343 30.2359H56.828C57.587 30.2359 58.2014 29.6215 58.2014 28.8625C58.2014 28.1034 57.587 27.4891 56.828 27.4891Z" fill="white"/>
<path d="M62.7826 22.9123H40.8081C37.7793 22.9123 35.3145 25.3771 35.3145 28.4059V72.3549C35.3145 75.3837 37.7793 77.8485 40.8081 77.8485H62.7826C65.8113 77.8485 68.2762 75.3837 68.2762 72.3549V28.4059C68.2762 25.3771 65.8113 22.9123 62.7826 22.9123ZM65.5294 72.3549C65.5294 73.8721 64.2997 75.1017 62.7826 75.1017H40.8081C39.2909 75.1017 38.0613 73.8721 38.0613 72.3549V28.4059C38.0613 26.8887 39.2909 25.6591 40.8081 25.6591H62.7826C64.2997 25.6591 65.5294 26.8887 65.5294 28.4059V72.3549Z" fill="white"/>
<path d="M51.7956 73.2702C53.3127 73.2702 54.5424 72.0404 54.5424 70.5234C54.5424 69.0064 53.3127 67.7766 51.7956 67.7766C50.2786 67.7766 49.0488 69.0064 49.0488 70.5234C49.0488 72.0404 50.2786 73.2702 51.7956 73.2702Z" fill="white"/>
<path d="M46.7572 30.2363C47.5157 30.2363 48.1306 29.6214 48.1306 28.8629C48.1306 28.1044 47.5157 27.4895 46.7572 27.4895C45.9987 27.4895 45.3838 28.1044 45.3838 28.8629C45.3838 29.6214 45.9987 30.2363 46.7572 30.2363Z" fill="white"/>
</g>
<defs>
<clipPath id="clip0_253_62">
<rect width="54.9362" height="54.9362" fill="white" transform="translate(24.3252 22.9123)"/>
</clipPath>
</defs>
</svg>
