<svg width="52" height="53" viewBox="0 0 52 53" fill="none" xmlns="http://www.w3.org/2000/svg">
<g clip-path="url(#clip0_400_148)">
<path d="M30.7656 4.52789H25.5656C24.8472 4.52789 24.2656 5.10944 24.2656 5.82789C24.2656 6.54635 24.8472 7.12789 25.5656 7.12789H30.7656C31.4841 7.12789 32.0656 6.54635 32.0656 5.82789C32.0656 5.10944 31.4841 4.52789 30.7656 4.52789Z" fill="black"/>
<path d="M36.4023 0.19574H15.6023C12.7354 0.19574 10.4023 2.52883 10.4023 5.39574V46.9957C10.4023 49.8626 12.7354 52.1957 15.6023 52.1957H36.4023C39.2692 52.1957 41.6023 49.8626 41.6023 46.9957V5.39574C41.6023 2.52883 39.2692 0.19574 36.4023 0.19574ZM39.0023 46.9957C39.0023 48.4318 37.8384 49.5957 36.4023 49.5957H15.6023C14.1663 49.5957 13.0023 48.4318 13.0023 46.9957V5.39574C13.0023 3.95965 14.1663 2.79574 15.6023 2.79574H36.4023C37.8384 2.79574 39.0023 3.95965 39.0023 5.39574V46.9957Z" fill="black"/>
<path d="M26.0023 47.8622C27.4383 47.8622 28.6023 46.6981 28.6023 45.2622C28.6023 43.8262 27.4383 42.6622 26.0023 42.6622C24.5664 42.6622 23.4023 43.8262 23.4023 45.2622C23.4023 46.6981 24.5664 47.8622 26.0023 47.8622Z" fill="black"/>
<path d="M21.2336 7.12832C21.9516 7.12832 22.5336 6.54629 22.5336 5.82832C22.5336 5.11035 21.9516 4.52832 21.2336 4.52832C20.5156 4.52832 19.9336 5.11035 19.9336 5.82832C19.9336 6.54629 20.5156 7.12832 21.2336 7.12832Z" fill="black"/>
</g>
<defs>
<clipPath id="clip0_400_148">
<rect width="52" height="52" fill="white" transform="translate(0 0.19574)"/>
</clipPath>
</defs>
</svg>
