<svg width="103" height="102" viewBox="0 0 103 102" fill="none" xmlns="http://www.w3.org/2000/svg">
<ellipse cx="51.5" cy="51" rx="51.5" ry="51" fill="#028790"/>
<path d="M75.6849 64.7581H70.1045C69.5228 64.7581 69.0526 64.2879 69.0526 63.7062C69.0526 63.1245 69.5228 62.6543 70.1045 62.6543H75.6849C76.2182 62.6543 76.6516 62.2209 76.6516 61.6876V42.5995C76.6516 42.0672 76.2182 41.6338 75.6849 41.6338H28.216C27.6837 41.6338 27.2503 42.0672 27.2503 42.5995V61.6876C27.2503 62.2209 27.6837 62.6543 28.216 62.6543H33.7964C34.3771 62.6543 34.8483 63.1245 34.8483 63.7062C34.8483 64.2879 34.3771 64.7581 33.7964 64.7581H28.216C26.5234 64.7581 25.1465 63.3801 25.1465 61.6876V42.5995C25.1465 40.9069 26.5234 39.53 28.216 39.53H75.6839C77.3764 39.53 78.7544 40.9069 78.7544 42.5995V61.6876C78.7544 63.3801 77.3774 64.7581 75.6849 64.7581Z" fill="white"/>
<path d="M67.4682 40.5816H65.3643V32.6354H38.5404V40.5816H36.4365V31.5835C36.4365 31.0028 36.9078 30.5315 37.4884 30.5315H66.4162C66.9979 30.5315 67.4682 31.0028 67.4682 31.5835V40.5816Z" fill="white"/>
<path d="M66.4162 74.2607H37.4884C36.9078 74.2607 36.4365 73.7905 36.4365 73.2088V55.2136H38.5404V72.1569H65.3643V55.2136H67.4682V73.2088C67.4682 73.7905 66.9979 74.2607 66.4162 74.2607Z" fill="white"/>
<path d="M70.1041 56.2651H33.7961C33.2154 56.2651 32.7441 55.7949 32.7441 55.2132C32.7441 54.6315 33.2154 54.1613 33.7961 54.1613H70.1041C70.6858 54.1613 71.156 54.6315 71.156 55.2132C71.156 55.7949 70.6858 56.2651 70.1041 56.2651Z" fill="white"/>
<path d="M30.9025 40.9788C30.3218 40.9788 29.8506 40.5075 29.8506 39.9269V35.9138C29.8506 35.3331 30.3218 34.8619 30.9025 34.8619H33.5428C34.1235 34.8619 34.5947 35.3331 34.5947 35.9138C34.5947 36.4944 34.1235 36.9657 33.5428 36.9657H31.9544V39.9269C31.9544 40.5075 31.4832 40.9788 30.9025 40.9788Z" fill="white"/>
<path d="M72.9968 40.9788C72.4151 40.9788 71.9449 40.5075 71.9449 39.9269V36.9657H70.3576C69.7759 36.9657 69.3057 36.4944 69.3057 35.9138C69.3057 35.3331 69.7759 34.8619 70.3576 34.8619H72.9968C73.5786 34.8619 74.0488 35.3331 74.0488 35.9138V39.9269C74.0488 40.5075 73.5786 40.9788 72.9968 40.9788Z" fill="white"/>
<path d="M61.1676 62.7673H42.7316C42.1509 62.7673 41.6797 62.2971 41.6797 61.7154C41.6797 61.1337 42.1509 60.6635 42.7316 60.6635H61.1665C61.7482 60.6635 62.2184 61.1337 62.2184 61.7154C62.2184 62.2971 61.7482 62.7673 61.1676 62.7673Z" fill="white"/>
<path d="M52.1494 67.757H42.7316C42.1509 67.757 41.6797 67.2868 41.6797 66.7051C41.6797 66.1234 42.1509 65.6532 42.7316 65.6532H52.1494C52.7301 65.6532 53.2014 66.1234 53.2014 66.7051C53.2014 67.2868 52.7301 67.757 52.1494 67.757Z" fill="white"/>
<path d="M68.2584 50.7312C66.6595 50.7312 65.3604 49.4311 65.3604 47.8332C65.3604 46.2353 66.6595 44.9341 68.2584 44.9341C69.8573 44.9341 71.1575 46.2343 71.1575 47.8332C71.1575 49.4321 69.8563 50.7312 68.2584 50.7312ZM68.2584 47.038C67.8208 47.038 67.4642 47.3946 67.4642 47.8332C67.4642 48.2719 67.8208 48.6274 68.2584 48.6274C68.697 48.6274 69.0536 48.2708 69.0536 47.8332C69.0536 47.3946 68.697 47.038 68.2584 47.038Z" fill="white"/>
</svg>
