<svg width="52" height="52" viewBox="0 0 52 52" fill="none" xmlns="http://www.w3.org/2000/svg">
<path d="M26.0007 15.1667C26.0007 12.8681 25.0876 10.6637 23.4622 9.03841C21.8369 7.41309 19.6325 6.5 17.334 6.5H4.33398V39H19.5007C21.2246 39 22.8779 39.6848 24.0968 40.9038C25.3158 42.1228 26.0007 43.7761 26.0007 45.5M26.0007 15.1667V45.5M26.0007 15.1667C26.0007 12.8681 26.9137 10.6637 28.5391 9.03841C30.1644 7.41309 32.3688 6.5 34.6673 6.5H47.6673V39H32.5007C30.7767 39 29.1234 39.6848 27.9045 40.9038C26.6855 42.1228 26.0007 43.7761 26.0007 45.5" stroke="#3E3E3E" stroke-width="3" stroke-linecap="round" stroke-linejoin="round"/>
</svg>
