<svg width="52" height="52" viewBox="0 0 52 52" fill="none" xmlns="http://www.w3.org/2000/svg">
<path d="M39.0007 17.3337H41.1673C43.4659 17.3337 45.6703 18.2467 47.2956 19.8721C48.9209 21.4974 49.834 23.7018 49.834 26.0003C49.834 28.2989 48.9209 30.5033 47.2956 32.1286C45.6703 33.7539 43.4659 34.667 41.1673 34.667H39.0007M39.0007 17.3337H4.33398V36.8337C4.33398 39.1322 5.24708 41.3366 6.87239 42.9619C8.49771 44.5872 10.7021 45.5003 13.0007 45.5003H30.334C32.6325 45.5003 34.8369 44.5872 36.4622 42.9619C38.0876 41.3366 39.0007 39.1322 39.0007 36.8337V17.3337ZM13.0007 2.16699V8.66699M21.6673 2.16699V8.66699M30.334 2.16699V8.66699" stroke="white" stroke-width="3" stroke-linecap="round" stroke-linejoin="round"/>
</svg>
