<svg width="52" height="52" viewBox="0 0 52 52" fill="none" xmlns="http://www.w3.org/2000/svg">
<path d="M39.0007 17.3333H41.1673C43.4659 17.3333 45.6703 18.2464 47.2956 19.8717C48.9209 21.497 49.834 23.7014 49.834 26C49.834 28.2985 48.9209 30.5029 47.2956 32.1282C45.6703 33.7535 43.4659 34.6666 41.1673 34.6666H39.0007M39.0007 17.3333H4.33398V36.8333C4.33398 39.1318 5.24708 41.3362 6.87239 42.9615C8.49771 44.5869 10.7021 45.5 13.0007 45.5H30.334C32.6325 45.5 34.8369 44.5869 36.4622 42.9615C38.0876 41.3362 39.0007 39.1318 39.0007 36.8333V17.3333ZM13.0007 2.16663V8.66663M21.6673 2.16663V8.66663M30.334 2.16663V8.66663" stroke="white" stroke-width="2.4" stroke-linecap="round" stroke-linejoin="round"/>
</svg>
