<svg width="52" height="52" viewBox="0 0 52 52" fill="none" xmlns="http://www.w3.org/2000/svg">
<g clip-path="url(#clip0_2723_2470)">
<path d="M50.9166 45.8346H47.6666V22.0012C47.6666 19.6113 45.7232 17.6678 43.3333 17.6678H8.66663C6.27677 17.6678 4.33327 19.6112 4.33327 22.0012V45.8346H1.08327C0.484555 45.8346 0 46.319 0 46.9178V48.0012C0 50.3911 1.9434 52.3346 4.33337 52.3346H47.6667C50.0566 52.3346 52 50.3911 52 48.0012V46.9178C52 46.319 51.5154 45.8346 50.9166 45.8346ZM6.5 22.0012C6.5 20.8068 7.47226 19.8346 8.66663 19.8346H43.3333C44.5276 19.8346 45.4999 20.8068 45.4999 22.0012V45.8346H31.4166H20.5834H6.5V22.0012ZM47.6666 50.1678H4.33337C3.13899 50.1678 2.16673 49.1956 2.16673 48.0012H5.41673H20.1348L20.9008 48.7672C21.1039 48.9703 21.3789 49.0846 21.6667 49.0846H30.3334C30.6211 49.0846 30.8962 48.9703 31.0994 48.7672L31.8652 48.0012H46.5834H49.8334C49.8334 49.1956 48.8611 50.1678 47.6666 50.1678Z" fill="white"/>
<circle cx="26.375" cy="31.375" r="5.275" stroke="white" stroke-width="2.2"/>
<path d="M35.75 46.375C35.75 41.1973 31.5527 37 26.375 37C21.1973 37 17 41.1973 17 46.375" stroke="white" stroke-width="2.2"/>
</g>
<defs>
<clipPath id="clip0_2723_2470">
<rect width="52" height="52" fill="white"/>
</clipPath>
</defs>
</svg>
