<svg width="68" height="42" viewBox="0 0 68 42" fill="none" xmlns="http://www.w3.org/2000/svg">
<path d="M46 33.5C46 26.5964 40.4036 21 33.5 21C26.5964 21 21 26.5964 21 33.5" stroke="white" stroke-width="3"/>
<circle cx="33.5" cy="13.5" r="7" stroke="white" stroke-width="3"/>
<path d="M46 33.5C46 26.5964 40.4036 21 33.5 21C26.5964 21 21 26.5964 21 33.5" stroke="white" stroke-width="3"/>
<path d="M62.2862 33.93V33.9771H62.3333H66.5833C67.3441 33.9771 67.9529 34.5432 67.9529 35.2349V36.54C67.9529 39.3892 65.4363 41.7129 62.3334 41.7129H5.66671C2.56367 41.7129 0.0471191 39.3892 0.0471191 36.54V35.2349C0.0471191 34.5432 0.655952 33.9771 1.41658 33.9771H5.66658H5.7137V33.93V5.22003C5.7137 2.37063 8.23038 0.0471191 11.3333 0.0471191H56.6666C59.7696 0.0471191 62.2862 2.37076 62.2862 5.22003V33.93ZM59.4999 33.9771H59.547V33.93V5.22003C59.547 3.75168 58.2508 2.56296 56.6666 2.56296H11.3333C9.74911 2.56296 8.45288 3.75168 8.45288 5.22003V33.93V33.9771H8.5H26.9167H41.0833H59.4999ZM2.83342 36.4928H2.7863V36.54C2.7863 38.0083 4.08253 39.197 5.66671 39.197H62.3333C63.9176 39.197 65.2138 38.0083 65.2138 36.54V36.4928H65.1667H60.9167H41.6699H41.6515L41.638 36.5053L40.6365 37.428C40.3799 37.6644 40.0316 37.7979 39.6667 37.7979H28.3334C27.9684 37.7979 27.6202 37.6644 27.3637 37.428L26.362 36.5053L26.3485 36.4928H26.3301H7.08342H2.83342Z" fill="white" stroke="white" stroke-width="0.0942383"/>
</svg>
