<svg width="68" height="42" viewBox="0 0 68 42" fill="none" xmlns="http://www.w3.org/2000/svg">
<circle cx="33.5" cy="13.5" r="7" stroke="#3E3E3E" stroke-width="3"/>
<path d="M46 33.5C46 26.5964 40.4036 21 33.5 21C26.5964 21 21 26.5964 21 33.5" stroke="#3E3E3E" stroke-width="3"/>
<circle cx="33.5" cy="13.5" r="7" stroke="#3E3E3E" stroke-width="3"/>
<path d="M46 33.5C46 26.5964 40.4036 21 33.5 21C26.5964 21 21 26.5964 21 33.5" stroke="#3E3E3E" stroke-width="3"/>
<path d="M66.5833 33.9296H62.3333V5.21997C62.3333 2.34114 59.7919 0 56.6666 0H11.3333C8.20808 0 5.66658 2.34102 5.66658 5.21997V33.9296H1.41658C0.633648 33.9296 0 34.5132 0 35.2345V36.5395C0 39.4184 2.54137 41.7595 5.66671 41.7595H62.3334C65.4586 41.7595 68 39.4184 68 36.5395V35.2345C68 34.5132 67.3664 33.9296 66.5833 33.9296ZM8.5 5.21997C8.5 3.78123 9.77141 2.61005 11.3333 2.61005H56.6666C58.2285 2.61005 59.4999 3.78123 59.4999 5.21997V33.9296H41.0833H26.9167H8.5V5.21997ZM62.3333 39.1495H5.66671C4.10484 39.1495 2.83342 37.9783 2.83342 36.5395H7.08342H26.3301L27.3318 37.4622C27.5974 37.7069 27.957 37.8446 28.3334 37.8446H39.6667C40.043 37.8446 40.4028 37.7069 40.6684 37.4622L41.6699 36.5395H60.9167H65.1667C65.1667 37.9783 63.8953 39.1495 62.3333 39.1495Z" fill="#3E3E3E"/>
<path d="M66.5833 33.9296H62.3333V5.21997C62.3333 2.34114 59.7919 0 56.6666 0H11.3333C8.20808 0 5.66658 2.34102 5.66658 5.21997V33.9296H1.41658C0.633648 33.9296 0 34.5132 0 35.2345V36.5395C0 39.4184 2.54137 41.7595 5.66671 41.7595H62.3334C65.4586 41.7595 68 39.4184 68 36.5395V35.2345C68 34.5132 67.3664 33.9296 66.5833 33.9296ZM8.5 5.21997C8.5 3.78123 9.77141 2.61005 11.3333 2.61005H56.6666C58.2285 2.61005 59.4999 3.78123 59.4999 5.21997V33.9296H41.0833H26.9167H8.5V5.21997ZM62.3333 39.1495H5.66671C4.10484 39.1495 2.83342 37.9783 2.83342 36.5395H7.08342H26.3301L27.3318 37.4622C27.5974 37.7069 27.957 37.8446 28.3334 37.8446H39.6667C40.043 37.8446 40.4028 37.7069 40.6684 37.4622L41.6699 36.5395H60.9167H65.1667C65.1667 37.9783 63.8953 39.1495 62.3333 39.1495Z" fill="#3E3E3E"/>
</svg>
